<svg version="1.1" id="Layer_1" xmlns="http://www.w3.org/2000/svg" xmlns:xlink="http://www.w3.org/1999/xlink" x="0px" y="0px"
	 width="100%" viewBox="0 0 100 100" enable-background="new 0 0 100 100" xml:space="preserve">
<path fill="#000000" opacity="1.000000" stroke="none" 
	d="
M61.000000,101.000000 
	C40.666672,101.000000 20.833340,101.000000 1.000008,101.000000 
	C1.000005,67.666679 1.000005,34.333351 1.000003,1.000021 
	C34.333317,1.000014 67.666634,1.000014 100.999969,1.000007 
	C100.999977,34.333313 100.999977,67.666626 100.999985,100.999969 
	C87.833336,101.000000 74.666664,101.000000 61.000000,101.000000 
M73.607285,43.012020 
	C73.607285,43.012020 73.189194,42.974041 73.119980,42.884995 
	C73.119980,42.884995 73.013458,42.922050 72.617264,42.212608 
	C60.420803,42.188156 48.224346,42.163708 35.546600,41.993160 
	C35.383949,41.952496 35.221298,41.911831 35.010506,41.045204 
	C35.037178,39.390526 35.063850,37.735851 35.764301,35.790325 
	C39.850815,35.805679 43.937328,35.821033 48.947960,35.982941 
	C56.157719,35.988365 63.369392,36.077045 70.575195,35.910896 
	C71.676292,35.885506 72.750221,34.682117 73.951683,33.509186 
	C73.915878,33.337185 73.880081,33.165180 73.981499,32.171776 
	C73.933907,30.788021 73.886307,29.404266 73.933853,27.537598 
	C73.933853,27.537598 73.806526,27.062006 73.552155,26.237539 
	C59.527348,26.163221 45.502556,26.079014 31.477659,26.053350 
	C30.955942,26.052395 30.433184,26.621820 29.229300,27.256245 
	C25.129225,32.030479 27.692497,37.748211 27.015095,43.006081 
	C26.527943,46.787235 27.053726,49.532616 32.100311,49.114826 
	C35.141235,48.863079 38.266010,49.884220 41.360085,49.938972 
	C44.266502,49.990398 45.072384,51.319523 45.025841,53.963978 
	C44.926331,59.617447 45.100456,65.276520 44.957298,70.928101 
	C44.881424,73.923447 45.970890,75.132874 49.022446,75.044289 
	C54.340546,74.889893 59.668774,74.902122 64.988205,75.031540 
	C69.489777,75.141052 72.545052,73.411713 73.968399,68.483772 
	C73.968399,68.483772 74.094551,68.001656 74.849968,67.579918 
	C74.899239,61.525040 75.036247,55.468906 74.949707,49.415970 
	C74.919815,47.324947 74.333885,45.241875 73.607285,43.012020 
z"/>
<path fill="#FD3A3F" opacity="1.000000" stroke="none" 
	d="
M73.838715,28.020512 
	C73.886307,29.404266 73.933907,30.788021 73.454475,32.586517 
	C62.006802,33.000538 51.085758,32.953564 40.165913,33.046974 
	C38.449429,33.061653 36.738388,33.712662 35.027634,34.404488 
	C35.050465,35.186745 35.070492,35.633957 35.090523,36.081173 
	C35.063850,37.735851 35.037178,39.390526 35.120117,41.854988 
	C36.870934,43.109581 38.508018,43.921345 40.154015,43.939835 
	C51.087162,44.062668 62.022221,44.015636 72.975441,44.489906 
	C73.268799,52.956425 73.543373,60.956894 73.817955,68.957359 
	C72.545052,73.411713 69.489777,75.141052 64.988205,75.031540 
	C59.668774,74.902122 54.340546,74.889893 49.022446,75.044289 
	C45.970890,75.132874 44.881424,73.923447 44.957298,70.928101 
	C45.100456,65.276520 44.926331,59.617447 45.025841,53.963978 
	C45.072384,51.319523 44.266502,49.990398 41.360085,49.938972 
	C38.266010,49.884220 35.141235,48.863079 32.100311,49.114826 
	C27.053726,49.532616 26.527943,46.787235 27.015095,43.006081 
	C27.692497,37.748211 25.129225,32.030479 29.864548,27.146568 
	C30.696970,27.069839 30.894144,27.102787 31.406950,27.386400 
	C45.761292,27.764883 59.800003,27.892698 73.838715,28.020512 
M65.350540,50.370171 
	C61.324451,50.551010 57.298363,50.731850 53.051552,51.828518 
	C53.382099,56.282562 53.712650,60.736607 54.600300,65.793686 
	C58.059322,65.818977 61.518341,65.844269 65.728226,65.480721 
	C65.746162,60.672867 65.764099,55.865017 65.350540,50.370171 
z"/>
<path fill="#EE3338" opacity="1.000000" stroke="none" 
	d="
M35.024830,34.069447 
	C36.738388,33.712662 38.449429,33.061653 40.165913,33.046974 
	C51.085758,32.953564 62.006802,33.000538 73.385864,32.997223 
	C73.880081,33.165180 73.915878,33.337185 73.512085,33.906284 
	C64.709473,34.517448 56.346443,34.731514 47.682903,34.665272 
	C43.263203,34.279793 39.144016,34.174618 35.024830,34.069447 
z"/>
<path fill="#E67A7D" opacity="1.000000" stroke="none" 
	d="
M31.091320,27.135733 
	C30.894144,27.102787 30.696970,27.069839 30.205353,26.981167 
	C30.433184,26.621820 30.955942,26.052395 31.477659,26.053350 
	C45.502556,26.079014 59.527348,26.163221 73.223915,26.637676 
	C58.960892,27.070454 45.026104,27.103094 31.091320,27.135733 
z"/>
<path fill="#DD3135" opacity="1.000000" stroke="none" 
	d="
M31.406950,27.386400 
	C45.026104,27.103094 58.960892,27.070454 73.351105,27.049910 
	C73.806526,27.062006 73.933853,27.537598 73.886284,27.779057 
	C59.800003,27.892698 45.761292,27.764883 31.406950,27.386400 
z"/>
<path fill="#DD6D6F" opacity="1.000000" stroke="none" 
	d="
M36.027885,42.139259 
	C48.224346,42.163708 60.420803,42.188156 72.347832,42.600201 
	C62.965431,42.993671 53.851688,43.068405 44.739952,42.965401 
	C41.833187,42.932541 38.931755,42.427982 36.027885,42.139259 
z"/>
<path fill="#E3383A" opacity="1.000000" stroke="none" 
	d="
M35.787243,42.066208 
	C38.931755,42.427982 41.833187,42.932541 44.739952,42.965401 
	C53.851688,43.068405 62.965431,42.993671 72.545929,42.954922 
	C73.013458,42.922050 73.119980,42.884995 73.089203,43.189957 
	C73.024498,43.671230 72.990578,43.847538 72.956657,44.023849 
	C62.022221,44.015636 51.087162,44.062668 40.154015,43.939835 
	C38.508018,43.921345 36.870934,43.109581 35.144188,42.267967 
	C35.221298,41.911831 35.383949,41.952496 35.787243,42.066208 
z"/>
<path fill="#FFE9EA" opacity="1.000000" stroke="none" 
	d="
M47.983418,34.945576 
	C56.346443,34.731514 64.709473,34.517448 73.454605,34.163475 
	C72.750221,34.682117 71.676292,35.885506 70.575195,35.910896 
	C63.369392,36.077045 56.157719,35.988365 48.493538,35.686188 
	C48.039112,35.389435 47.983418,34.945576 47.983418,34.945576 
z"/>
<path fill="#C4191B" opacity="1.000000" stroke="none" 
	d="
M72.975441,44.489906 
	C72.990578,43.847538 73.024498,43.671230 73.123810,43.234482 
	C73.189194,42.974041 73.607285,43.012020 73.797211,43.540905 
	C74.022934,52.047077 74.058746,60.024368 74.094559,68.001656 
	C74.094551,68.001656 73.968399,68.483772 73.893173,68.720566 
	C73.543373,60.956894 73.268799,52.956425 72.975441,44.489906 
z"/>
<path fill="#F16568" opacity="1.000000" stroke="none" 
	d="
M47.682903,34.665272 
	C47.983418,34.945576 48.039112,35.389435 48.031479,35.612907 
	C43.937328,35.821033 39.850815,35.805679 35.427414,35.935749 
	C35.070492,35.633957 35.050465,35.186745 35.027634,34.404488 
	C39.144016,34.174618 43.263203,34.279793 47.682903,34.665272 
z"/>
<path fill="#FFA4A4" opacity="1.000000" stroke="none" 
	d="
M74.472260,67.790787 
	C74.058746,60.024368 74.022934,52.047077 73.994537,43.612480 
	C74.333885,45.241875 74.919815,47.324947 74.949707,49.415970 
	C75.036247,55.468906 74.899239,61.525040 74.472260,67.790787 
z"/>
<path fill="#000000" opacity="1.000000" stroke="none" 
	d="
M54.043198,65.190651 
	C53.712650,60.736607 53.382099,56.282562 53.595352,51.400867 
	C57.738483,51.000050 61.337811,51.026886 64.968521,51.513107 
	C64.986717,56.274506 64.973526,60.576523 64.508301,64.926666 
	C60.718578,65.046753 57.380886,65.118706 54.043198,65.190651 
z"/>
<path fill="#FFD4D1" opacity="1.000000" stroke="none" 
	d="
M64.960327,64.878540 
	C64.973526,60.576523 64.986717,56.274506 65.179550,51.526085 
	C65.359184,51.079681 65.782043,51.057163 65.782043,51.057163 
	C65.764099,55.865017 65.746162,60.672867 65.345680,65.427429 
	C64.963135,65.374146 64.960327,64.878540 64.960327,64.878540 
z"/>
<path fill="#FFB7B8" opacity="1.000000" stroke="none" 
	d="
M65.566292,50.713669 
	C65.782043,51.057163 65.359184,51.079681 65.148163,51.066704 
	C61.337811,51.026886 57.738483,51.000050 53.705711,50.942955 
	C57.298363,50.731850 61.324451,50.551010 65.566292,50.713669 
z"/>
<path fill="#FFEBE4" opacity="1.000000" stroke="none" 
	d="
M64.508301,64.926666 
	C64.960327,64.878540 64.963135,65.374146 64.970245,65.621857 
	C61.518341,65.844269 58.059322,65.818977 54.321747,65.492172 
	C57.380886,65.118706 60.718578,65.046753 64.508301,64.926666 
z"/>
</svg>